HIERARCHY
ROOT Hips
{
  OFFSET 0.000000 0.000000 0.000000
  CHANNELS 6 Xposition Yposition Zposition Xrotation Yrotation Zrotation
  JOINT Spine
  {
    OFFSET 0.000000 5.000000 0.000000
    CHANNELS 3 Xrotation Yrotation Zrotation
    JOINT Chest
    {
      OFFSET 0.000000 5.000000 0.000000
      CHANNELS 3 Xrotation Yrotation Zrotation
      JOINT Neck
      {
        OFFSET 0.000000 5.000000 0.000000
        CHANNELS 3 Xrotation Yrotation Zrotation
        JOINT Head
        {
          OFFSET 0.000000 5.000000 0.000000
          CHANNELS 3 Xrotation Yrotation Zrotation
          End Site
          {
            OFFSET 0.0 5.0 2.0
          }
        }
      }
      JOINT LeftShoulder
      {
        OFFSET -5.000000 0.000000 0.000000
        CHANNELS 3 Xrotation Yrotation Zrotation
        JOINT LeftArm
        {
          OFFSET -5.000000 0.000000 0.000000
          CHANNELS 3 Xrotation Yrotation Zrotation
          JOINT LeftForeArm
          {
            OFFSET -5.000000 0.000000 0.000000
            CHANNELS 3 Xrotation Yrotation Zrotation
            JOINT LeftHand
            {
              OFFSET -5.000000 0.000000 0.000000
              CHANNELS 3 Xrotation Yrotation Zrotation
              End Site
              {
                OFFSET -3.0 0.0 2.0
              }
            }
          }
        }
      }
      JOINT RightShoulder
      {
        OFFSET 5.000000 0.000000 0.000000
        CHANNELS 3 Xrotation Yrotation Zrotation
        JOINT RightArm
        {
          OFFSET 5.000000 0.000000 0.000000
          CHANNELS 3 Xrotation Yrotation Zrotation
          JOINT RightForeArm
          {
            OFFSET 5.000000 0.000000 0.000000
            CHANNELS 3 Xrotation Yrotation Zrotation
            JOINT RightHand
            {
              OFFSET 5.000000 0.000000 0.000000
              CHANNELS 3 Xrotation Yrotation Zrotation
              End Site
              {
                OFFSET 3.0 0.0 2.0
              }
            }
          }
        }
      }
    }
  }
  JOINT LeftUpLeg
  {
    OFFSET -3.535534 -3.535534 0.000000
    CHANNELS 3 Xrotation Yrotation Zrotation
    JOINT LeftLeg
    {
      OFFSET 0.000000 -5.000000 0.000000
      CHANNELS 3 Xrotation Yrotation Zrotation
      JOINT LeftFoot
      {
        OFFSET 0.000000 -5.000000 0.000000
        CHANNELS 3 Xrotation Yrotation Zrotation
        JOINT LeftToeBase
        {
          OFFSET 0.000000 0.000000 5.000000
          CHANNELS 3 Xrotation Yrotation Zrotation
          End Site
          {
            OFFSET 0.0 -1.0 3.0
          }
        }
      }
    }
  }
  JOINT RightUpLeg
  {
    OFFSET 3.535534 -3.535534 0.000000
    CHANNELS 3 Xrotation Yrotation Zrotation
    JOINT RightLeg
    {
      OFFSET 0.000000 -5.000000 0.000000
      CHANNELS 3 Xrotation Yrotation Zrotation
      JOINT RightFoot
      {
        OFFSET 0.000000 -5.000000 0.000000
        CHANNELS 3 Xrotation Yrotation Zrotation
        JOINT RightToeBase
        {
          OFFSET 0.000000 0.000000 5.000000
          CHANNELS 3 Xrotation Yrotation Zrotation
          End Site
          {
            OFFSET 0.0 -1.0 3.0
          }
        }
      }
    }
  }
}
MOTION
Frames: 9
Frame Time: 0.083333
0.000000 0.000000 0.000000 -48.627964 75.384959 -150.632547 -165.000256 10.051643 1.326646 174.549695 43.922428 177.800836 -18.895179 -11.999291 -64.552138 0.000000 0.000000 0.000000 -7.064063 7.202548 -88.884825 31.485544 -21.804796 -111.311637 26.742519 -22.701386 -99.638016 0.000000 0.000000 0.000000 7.637222 6.450261 99.656345 8.431338 11.931384 70.395986 12.758063 20.768708 62.772600 0.000000 0.000000 0.000000 -3.076891 22.966617 164.937720 -63.852152 71.918562 98.683113 -43.944762 46.960139 -19.881952 0.000000 0.000000 0.000000 -160.116681 -30.786522 -5.525584 -136.965607 -38.014208 -15.467856 -44.479573 10.983868 -4.502820 0.000000 0.000000 0.000000
0.000000 0.000000 0.000000 -47.399526 75.199561 -149.367265 -164.090207 10.070109 1.410741 173.432695 44.021097 177.342796 -20.995982 -13.024272 -63.267781 0.000000 0.000000 0.000000 -7.731108 7.799056 -89.497099 29.639741 -20.641359 -110.923204 27.220582 -23.201739 -99.411734 0.000000 0.000000 0.000000 7.678558 6.559330 99.012387 8.718375 11.510227 74.204572 15.356313 22.470749 68.327652 0.000000 0.000000 0.000000 -46.306656 76.907777 123.394897 -85.373530 71.169388 75.606277 -47.121612 46.693377 -21.319547 0.000000 0.000000 0.000000 -155.391975 -46.497708 -10.706163 -135.022977 -43.468736 -18.742098 -46.408177 10.685474 -4.591567 0.000000 0.000000 0.000000
0.000000 0.000000 0.000000 -44.795149 74.843373 -146.614603 -164.184934 12.046244 1.679239 172.519160 43.754339 176.992600 -22.073785 -13.501520 -62.505515 0.000000 0.000000 0.000000 -7.509848 7.475663 -90.262153 28.720710 -20.567691 -109.349917 26.667124 -23.812791 -96.685580 0.000000 0.000000 0.000000 7.685812 6.663728 98.169485 9.171692 11.306558 78.034337 16.704888 22.828181 72.050701 0.000000 0.000000 0.000000 -135.228237 75.708037 35.500866 -111.595141 68.279385 49.485442 -49.370805 48.029898 -23.147005 0.000000 0.000000 0.000000 -149.925483 -57.505476 -16.770162 -125.472303 -52.144634 -28.304641 -47.357882 11.422457 -5.022539 0.000000 0.000000 0.000000
0.000000 0.000000 0.000000 -42.567479 74.427899 -144.312268 -164.702049 12.920222 1.742424 171.188472 43.291706 176.497292 -21.921722 -13.373683 -62.377727 0.000000 0.000000 0.000000 -7.956865 7.873940 -90.602160 27.594337 -20.115507 -108.321766 25.182581 -23.193883 -94.850471 0.000000 0.000000 0.000000 7.451723 6.479641 98.002401 10.324915 11.919793 81.746871 18.126221 24.259161 73.165275 0.000000 0.000000 0.000000 -135.000919 78.254703 37.241772 -142.923514 52.630729 18.833144 -50.757565 45.421484 -22.459222 0.000000 0.000000 0.000000 -152.424052 -58.237698 -15.567520 -101.056549 -61.698639 -52.382424 -45.428806 5.572448 -2.334169 0.000000 0.000000 0.000000
0.000000 0.000000 0.000000 -43.183746 75.223376 -144.378510 -165.984771 17.896069 2.217559 168.506213 43.357876 175.418020 -20.868101 -12.538146 -61.636736 0.000000 0.000000 0.000000 -10.038383 9.751618 -91.668638 26.811651 -19.846368 -107.441849 26.172614 -23.990011 -95.145043 0.000000 0.000000 0.000000 6.239881 5.413743 98.123834 9.999200 11.140662 83.783518 17.855249 23.891905 73.187240 0.000000 0.000000 0.000000 -162.348409 56.194088 9.477484 -148.062568 23.232895 6.733056 -57.338983 46.661328 -26.539532 0.000000 0.000000 0.000000 -22.478594 -75.486501 -151.204925 -51.531263 -61.984569 -102.432209 -48.429970 5.502316 -2.476087 0.000000 0.000000 0.000000
0.000000 0.000000 0.000000 -44.867377 76.787000 -145.040733 -167.264681 20.058536 2.261314 168.404121 43.664333 175.341073 -21.246693 -12.526113 -60.665242 0.000000 0.000000 0.000000 -10.651040 10.315806 -91.842280 28.152156 -20.773339 -107.665268 27.645669 -24.660647 -96.763624 0.000000 0.000000 0.000000 5.057892 4.380401 98.220635 10.158031 11.438978 83.171259 17.001093 23.731783 70.851571 0.000000 0.000000 0.000000 -167.890894 45.567306 5.101777 -149.154999 3.813245 1.052313 -59.860634 45.103579 -26.892306 0.000000 0.000000 0.000000 -13.499233 -78.781341 -163.596798 -46.169507 -57.512067 -104.326629 -51.086443 3.269508 -1.562831 0.000000 0.000000 0.000000
0.000000 0.000000 0.000000 -51.666835 81.168912 -148.947182 -169.496878 28.842727 2.708003 169.437446 46.482778 175.453346 -21.618735 -12.623897 -60.170378 0.000000 0.000000 0.000000 -9.829077 9.377897 -92.703941 30.181397 -21.214443 -110.438369 29.800620 -24.105900 -102.508725 0.000000 0.000000 0.000000 5.317630 4.585417 98.467731 10.655694 12.138021 82.509375 16.732317 23.917309 69.547864 0.000000 0.000000 0.000000 -174.949485 5.049285 0.222831 -148.105388 -8.448939 -2.418312 -57.424069 44.481038 -25.250312 0.000000 0.000000 0.000000 8.434694 -67.043821 167.296403 -43.319164 -49.101694 -97.993915 -58.644818 -4.242787 2.383869 0.000000 0.000000 0.000000
0.000000 0.000000 0.000000 -63.440956 85.021408 -157.982935 -170.281864 32.095652 2.801574 169.748539 47.460253 175.483772 -21.039002 -12.144591 -59.615720 0.000000 0.000000 0.000000 -8.863436 8.404051 -93.059432 32.356711 -21.289509 -114.125340 31.175834 -23.660698 -106.199640 0.000000 0.000000 0.000000 5.960423 5.106421 98.838863 10.940727 12.552708 82.094874 16.628042 24.089013 68.813761 0.000000 0.000000 0.000000 -174.192167 -43.975912 -2.346779 -148.818426 -17.379152 -4.883900 -57.597873 46.285117 -26.445051 0.000000 0.000000 0.000000 5.279869 -45.996202 167.600076 -36.154087 -46.139586 -105.069070 -59.017770 0.650773 -0.368326 0.000000 0.000000 0.000000
0.000000 0.000000 0.000000 -99.556975 87.693067 168.175680 -170.497102 30.098708 2.560516 170.657643 48.073244 175.825948 -21.489518 -11.976395 -57.865786 0.000000 0.000000 0.000000 -9.672370 9.107933 -93.458422 30.388358 -18.486021 -118.139467 29.736366 -21.121213 -109.844081 0.000000 0.000000 0.000000 5.749425 4.914675 98.964387 10.307582 11.900639 81.742934 16.267994 23.568744 68.828843 0.000000 0.000000 0.000000 -100.735228 -86.199625 -75.553779 -148.008032 -25.834454 -7.523202 -61.393765 47.465778 -29.257368 0.000000 0.000000 0.000000 2.752077 -27.003838 168.574277 -45.092000 -50.359808 -97.107645 -56.903412 6.908268 -3.746554 0.000000 0.000000 0.000000
